EMG
version=1
nRows=24
nColumns=17
inDegrees=no
endheader
time	EMG01_right_gast_med	EMG02_right_glut_max	EMG03_left_gast_med	EMG04_left_glut_max	EMG05_right_glut_med	EMG06_right_bic_fem	EMG07_right_rect_fem	EMG08_right_vast_lat	EMG09_right_vast_med	EMG10_right_tens_fasc_lat	EMG11_left_glut_med	EMG12_left_bic_fem	EMG13_left_rect_fem	EMG14_left_vast_lat	EMG15_left_vast_med	EMG16_left_tens_fasc_lat
      0.00000000	     -8.84613800	     19.20911217	   -275.80548096	    -21.91580582	   -116.84988403	    106.42597961	      7.96712351	    -29.61808777	    -45.73263550	     -2.38218045	     -5.87214899	     -5.94549990	    -25.63080406	    -16.79088020	     -2.25411534	     17.72088242
      0.01000000	     -2.62931609	     17.40155029	    -39.64584351	    -19.03381348	   -206.27743530	     47.42868042	    -20.34428596	     -2.30669785	    -38.59733582	     16.30378914	      5.76476240	     -6.30317593	    -13.55156231	     -0.54276586	     -1.29961789	     26.65666008
      0.02000000	     -2.87660813	     -3.89128780	     88.94487762	    -14.33911610	   -322.23532104	    -17.38390732	    -22.35108185	     11.17708588	    -61.49927521	     51.54964066	      0.21277279	     -6.20222664	    -34.83820724	    -24.09802437	    -19.29585648	    -40.47025681
      0.03000000	      9.81724548	      9.88518715	     79.12685394	     -2.32155180	   -213.73855591	    -17.82960320	    -36.32282639	     15.67527294	    -46.78592300	     78.12548828	     -8.18698978	     -6.87278557	    -16.60485840	      3.87208080	      9.95670033	    -16.59887695
      0.04000000	     30.50360107	     19.20723534	     -1.69155121	      1.37338483	   -146.73942566	    -78.86051178	    -25.03293800	     -2.50780058	     -1.18869686	    101.43344879	     -3.43090057	     -7.65687990	     -6.77816105	     -1.86565948	      9.19481277	     -9.02446175
      0.05000000	     32.40152740	     28.94868469	    -16.22791481	     12.21536922	    -14.97486305	    160.06678772	    -17.39742279	     11.17209053	    129.94256592	    105.16747284	     -4.96114397	    -10.61378860	      8.86787319	     -0.54066825	     -0.33368397	      1.49437523
      0.06000000	     27.07109451	      7.25038290	      6.33946800	     24.32566643	      8.24110889	    -19.60870743	    -12.67802715	      8.03305340	    317.22235107	     72.59293365	      0.55616546	    -13.31281567	      3.36449313	     -2.50347805	    -15.85833168	    -21.97006989
      0.07000000	    -27.69923019	     19.19008446	      1.94183660	     31.18943787	    148.65557861	     80.94251251	     -8.40058899	     -2.19715476	    -64.74422455	    -35.20431900	     -6.99233723	     -6.21505785	      5.40939379	     -1.90258098	    -33.16962051	    -37.72956848
      0.08000000	    -31.42089844	    -27.60693550	    -15.06337643	     14.83396149	    593.93298340	     12.58049583	     24.69722557	     13.28733635	    -46.66732788	    -62.00154495	     -3.88502097	     -7.43756723	      9.54161263	      1.32426274	    -15.96104336	    -35.24568558
      0.09000000	    -68.98145294	    -64.27114105	     -6.91940784	      4.66496181	    -24.55392075	    -44.56475830	    -34.19714737	   -111.36009216	     50.66496658	   -109.79470062	    -10.19624138	    -11.87529850	      5.68912888	     -0.49529338	     -6.60432482	    -41.95872498
      0.10000000	    -24.71163559	    -80.08235168	     -3.96253538	      3.31443071	   -354.40692139	   -200.16244507	     10.36399078	    -12.49307060	    -20.17489624	   -111.16336823	     -4.84576225	     -8.88423347	      7.75857782	    -13.73608398	    -46.94089508	    -33.17800903
      0.11000000	     82.55725098	    -78.58347321	     -5.30697203	      3.07571602	   -162.79003906	     16.53091812	     -5.49994278	    -19.77776718	     50.31426620	    -72.53328705	     -5.65512657	     -4.42358160	      1.60362279	     -7.84724998	    -33.47372055	    -41.80910110
      0.12000000	     58.85245132	     16.96239281	     -0.15615249	     -9.80525112	    -23.11991119	   -115.68444824	      9.20969200	    -11.73368263	    -37.01677322	     74.62761688	     -7.30434656	     -5.10822392	      2.77637672	     -3.62308884	      5.11003971	    -29.85424995
      0.13000000	    -27.38969040	     92.90174103	     -7.27687550	    -30.23541260	    -86.09918213	    -41.29890060	     27.57098389	     -4.84548950	   -227.07629395	     91.43997955	    -12.31227589	     -9.41764259	     10.69810772	      5.14188528	     21.68673706	    -42.16777039
      0.14000000	    -36.14197159	    137.00901794	    -16.40736198	    -54.55785751	   -381.15939331	     33.51029968	     -3.25953674	      5.43555164	    -18.27963638	    -52.45666885	     -7.81030130	    -10.36890316	     -2.24681973	      4.39025021	     13.43090820	    -23.17652130
      0.15000000	    -52.37306976	     85.14025879	     -6.26652813	    -69.44389343	   -232.78083801	     90.10021973	    -30.61523438	     27.34240913	    204.39135742	   -196.38752747	     -9.72014236	     -6.62736797	     -2.92053223	     14.34252930	     37.77932358	     -5.38869619
      0.16000000	    -62.34733963	     -7.17252159	     -1.82738936	    -74.93289185	    224.23902893	     12.64969635	    -23.01296997	     38.48976135	    189.84196472	   -190.00967407	    -12.78173923	     -2.65383196	     -3.34766150	     15.43205261	     64.65953064	     12.28899193
      0.17000000	     -4.91422319	    -84.31210327	    -12.12686634	    -57.19693756	    300.14761353	    -19.53378105	    -22.36075020	     63.19982147	     93.23321533	    -51.44846725	      6.67501450	     -0.94827783	    -10.06626129	     10.20530224	     92.87682343	     16.40111351
      0.18000000	     37.38981247	    -94.06607056	     -7.11993504	   -104.90102386	    332.38330078	    -43.04497910	    -23.13991547	     48.23696518	    107.34298706	     66.54666138	      6.32110310	      1.31239712	    -15.26872635	     13.90990257	     81.49672699	      6.82521820
      0.19000000	     50.50603867	    -50.88981628	     -8.90702057	    -54.83998108	    193.41419983	    -75.34164429	     -7.08727741	    -25.12723160	     17.01187706	     76.66212463	      3.18805003	      1.43674207	    -16.28864479	     16.85595322	     56.69783020	     -5.33985710
      0.20000000	     46.31687546	    -27.01934624	      0.10627484	    143.44168091	     29.60660553	    -64.42514801	     17.46089554	    -49.32134247	    -97.34940338	     81.60865021	      2.39063525	     -7.60024786	    -10.23465443	     -3.50399017	     20.30862617	    -50.29642487
      0.21000000	     24.98290062	     22.00108528	      7.66410065	    282.31240845	   -110.10021973	    -48.53981400	     28.56458473	    -43.16873550	   -364.12673950	     51.27202988	      0.14302409	     -6.70073986	     -6.47155285	    -44.04742050	    -15.24195290	   -117.95825195
      0.22000000	    -30.34838867	     -6.93535423	     16.00214005	    646.28454590	    -41.64333725	    -31.15697098	     32.36393356	    -40.68120193	   -238.85800171	     61.60975266	      0.19504991	    -12.55782032	      1.78842926	    -44.53242111	    -53.38989258	   -161.59815979
      0.23000000	    -23.09639931	    -33.09867096	      6.30281687	    822.01483154	     62.15968323	    -27.08738899	     24.30712509	    -44.64930725	    -27.59970474	    145.79357910	     -7.90885162	     -8.14063358	      2.70504785	    -14.44874382	    -72.51283264	   -141.13412476
